<svg xmlns="http://www.w3.org/2000/svg" viewBox="0 0 1200 400" width="1200" height="400">
  <defs>
    <linearGradient id="bg" x1="0%" y1="0%" x2="100%" y2="100%">
      <stop offset="0%" style="stop-color:#0a0e17"/>
      <stop offset="50%" style="stop-color:#111827"/>
      <stop offset="100%" style="stop-color:#0a0e17"/>
    </linearGradient>
    <linearGradient id="accentPurple" x1="0%" y1="0%" x2="100%" y2="0%">
      <stop offset="0%" style="stop-color:#8b5cf6"/>
      <stop offset="100%" style="stop-color:#a78bfa"/>
    </linearGradient>
    <linearGradient id="accentCyan" x1="0%" y1="0%" x2="100%" y2="0%">
      <stop offset="0%" style="stop-color:#06b6d4"/>
      <stop offset="100%" style="stop-color:#22d3ee"/>
    </linearGradient>
    <linearGradient id="accentGreen" x1="0%" y1="0%" x2="100%" y2="0%">
      <stop offset="0%" style="stop-color:#10b981"/>
      <stop offset="100%" style="stop-color:#34d399"/>
    </linearGradient>
    <linearGradient id="accentRed" x1="0%" y1="0%" x2="100%" y2="0%">
      <stop offset="0%" style="stop-color:#ef4444"/>
      <stop offset="100%" style="stop-color:#f87171"/>
    </linearGradient>
    <linearGradient id="cardBg" x1="0%" y1="0%" x2="0%" y2="100%">
      <stop offset="0%" style="stop-color:#1e1b4b;stop-opacity:0.4"/>
      <stop offset="100%" style="stop-color:#0f172a;stop-opacity:0.6"/>
    </linearGradient>
    <filter id="glow">
      <feGaussianBlur stdDeviation="2.5" result="blur"/>
      <feMerge><feMergeNode in="blur"/><feMergeNode in="SourceGraphic"/></feMerge>
    </filter>
    <filter id="softGlow">
      <feGaussianBlur stdDeviation="6" result="blur"/>
      <feMerge><feMergeNode in="blur"/><feMergeNode in="SourceGraphic"/></feMerge>
    </filter>
    <!-- Scan line animation hint -->
    <linearGradient id="scanLine" x1="0%" y1="0%" x2="100%" y2="0%">
      <stop offset="0%" style="stop-color:#8b5cf6;stop-opacity:0"/>
      <stop offset="50%" style="stop-color:#8b5cf6;stop-opacity:0.3"/>
      <stop offset="100%" style="stop-color:#8b5cf6;stop-opacity:0"/>
    </linearGradient>
  </defs>

  <!-- Background -->
  <rect width="1200" height="400" fill="url(#bg)"/>

  <!-- Subtle hex grid pattern -->
  <g opacity="0.025" fill="none" stroke="#8b5cf6" stroke-width="0.5">
    <polygon points="30,15 45,0 60,15 60,35 45,50 30,35" transform="translate(0,0)"/>
    <polygon points="30,15 45,0 60,15 60,35 45,50 30,35" transform="translate(60,0)"/>
    <polygon points="30,15 45,0 60,15 60,35 45,50 30,35" transform="translate(120,0)"/>
    <polygon points="30,15 45,0 60,15 60,35 45,50 30,35" transform="translate(180,0)"/>
    <polygon points="30,15 45,0 60,15 60,35 45,50 30,35" transform="translate(240,0)"/>
    <polygon points="30,15 45,0 60,15 60,35 45,50 30,35" transform="translate(30,50)"/>
    <polygon points="30,15 45,0 60,15 60,35 45,50 30,35" transform="translate(90,50)"/>
    <polygon points="30,15 45,0 60,15 60,35 45,50 30,35" transform="translate(150,50)"/>
    <polygon points="30,15 45,0 60,15 60,35 45,50 30,35" transform="translate(210,50)"/>
    <polygon points="30,15 45,0 60,15 60,35 45,50 30,35" transform="translate(0,100)"/>
    <polygon points="30,15 45,0 60,15 60,35 45,50 30,35" transform="translate(60,100)"/>
    <polygon points="30,15 45,0 60,15 60,35 45,50 30,35" transform="translate(120,100)"/>
    <polygon points="30,15 45,0 60,15 60,35 45,50 30,35" transform="translate(180,100)"/>
    <polygon points="30,15 45,0 60,15 60,35 45,50 30,35" transform="translate(240,100)"/>
    <polygon points="30,15 45,0 60,15 60,35 45,50 30,35" transform="translate(900,200)"/>
    <polygon points="30,15 45,0 60,15 60,35 45,50 30,35" transform="translate(960,200)"/>
    <polygon points="30,15 45,0 60,15 60,35 45,50 30,35" transform="translate(1020,200)"/>
    <polygon points="30,15 45,0 60,15 60,35 45,50 30,35" transform="translate(1080,200)"/>
    <polygon points="30,15 45,0 60,15 60,35 45,50 30,35" transform="translate(930,250)"/>
    <polygon points="30,15 45,0 60,15 60,35 45,50 30,35" transform="translate(990,250)"/>
    <polygon points="30,15 45,0 60,15 60,35 45,50 30,35" transform="translate(1050,250)"/>
    <polygon points="30,15 45,0 60,15 60,35 45,50 30,35" transform="translate(900,300)"/>
    <polygon points="30,15 45,0 60,15 60,35 45,50 30,35" transform="translate(960,300)"/>
    <polygon points="30,15 45,0 60,15 60,35 45,50 30,35" transform="translate(1020,300)"/>
    <polygon points="30,15 45,0 60,15 60,35 45,50 30,35" transform="translate(1080,300)"/>
  </g>

  <!-- Ambient glow spots -->
  <ellipse cx="120" cy="80" rx="180" ry="120" fill="#8b5cf6" opacity="0.035"/>
  <ellipse cx="1080" cy="320" rx="180" ry="120" fill="#06b6d4" opacity="0.03"/>
  <ellipse cx="600" cy="400" rx="300" ry="100" fill="#8b5cf6" opacity="0.02"/>

  <!-- Top accent line -->
  <rect x="0" y="0" width="1200" height="2.5" fill="url(#accentPurple)"/>

  <!-- AI Brain + Shield icon -->
  <g transform="translate(60, 40)">
    <!-- Outer shield shape -->
    <path d="M44 6 L80 22 L80 54 C80 78 64 98 44 106 C24 98 8 78 8 54 L8 22 Z"
          fill="none" stroke="url(#accentPurple)" stroke-width="2" filter="url(#glow)" opacity="0.9"/>
    <path d="M44 16 L70 28 L70 52 C70 70 58 84 44 90 C30 84 18 70 18 52 L18 28 Z"
          fill="#8b5cf6" opacity="0.08"/>

    <!-- Neural network nodes inside shield -->
    <circle cx="44" cy="38" r="4" fill="#8b5cf6" opacity="0.9"/>
    <circle cx="30" cy="52" r="3" fill="#a78bfa" opacity="0.7"/>
    <circle cx="58" cy="52" r="3" fill="#a78bfa" opacity="0.7"/>
    <circle cx="36" cy="68" r="3" fill="#06b6d4" opacity="0.7"/>
    <circle cx="52" cy="68" r="3" fill="#06b6d4" opacity="0.7"/>
    <circle cx="44" cy="80" r="3.5" fill="#22d3ee" opacity="0.8"/>

    <!-- Neural connections -->
    <line x1="44" y1="38" x2="30" y2="52" stroke="#8b5cf6" stroke-width="1" opacity="0.4"/>
    <line x1="44" y1="38" x2="58" y2="52" stroke="#8b5cf6" stroke-width="1" opacity="0.4"/>
    <line x1="30" y1="52" x2="36" y2="68" stroke="#a78bfa" stroke-width="0.8" opacity="0.3"/>
    <line x1="58" y1="52" x2="52" y2="68" stroke="#a78bfa" stroke-width="0.8" opacity="0.3"/>
    <line x1="30" y1="52" x2="52" y2="68" stroke="#a78bfa" stroke-width="0.5" opacity="0.2"/>
    <line x1="58" y1="52" x2="36" y2="68" stroke="#a78bfa" stroke-width="0.5" opacity="0.2"/>
    <line x1="36" y1="68" x2="44" y2="80" stroke="#06b6d4" stroke-width="0.8" opacity="0.3"/>
    <line x1="52" y1="68" x2="44" y2="80" stroke="#06b6d4" stroke-width="0.8" opacity="0.3"/>

    <!-- Scanning eye -->
    <ellipse cx="44" cy="52" rx="10" ry="6" fill="none" stroke="#8b5cf6" stroke-width="1" opacity="0.3"/>
    <circle cx="44" cy="52" r="2.5" fill="#8b5cf6" opacity="0.5"/>
  </g>

  <!-- Title -->
  <text x="160" y="82" font-family="'SF Mono','Fira Code','Cascadia Code','Consolas',monospace" font-size="44" font-weight="900" letter-spacing="1">
    <tspan fill="url(#accentPurple)" filter="url(#glow)">Agentic</tspan>
    <tspan fill="#4b5563"> </tspan>
    <tspan fill="url(#accentCyan)" filter="url(#glow)">AI</tspan>
  </text>
  <text x="162" y="116" font-family="'Inter','Segoe UI','Helvetica Neue',sans-serif" font-size="22" fill="#e2e8f0" letter-spacing="6" font-weight="300">
    CYBER SECURITY
  </text>

  <!-- Tagline -->
  <line x1="160" y1="134" x2="520" y2="134" stroke="#8b5cf6" stroke-width="1" opacity="0.25"/>
  <text x="162" y="158" font-family="'Inter','Segoe UI',sans-serif" font-size="13" fill="#94a3b8" letter-spacing="0.3">
    AI-powered source code security analysis with MCP integration
  </text>

  <!-- 4 Capability cards -->
  <g transform="translate(160, 180)">
    <!-- Card 1: Rules -->
    <rect x="0" y="0" width="128" height="68" rx="8" fill="url(#cardBg)" stroke="#374151" stroke-width="0.8"/>
    <text x="64" y="28" font-family="'SF Mono','Fira Code',monospace" font-size="24" fill="#8b5cf6" font-weight="700" text-anchor="middle" filter="url(#glow)">237</text>
    <text x="64" y="48" font-family="'Inter','Segoe UI',sans-serif" font-size="9" fill="#6b7280" text-anchor="middle" letter-spacing="1.5" font-weight="500">SECURITY RULES</text>

    <!-- Card 2: Languages -->
    <rect x="140" y="0" width="128" height="68" rx="8" fill="url(#cardBg)" stroke="#374151" stroke-width="0.8"/>
    <text x="204" y="28" font-family="'SF Mono','Fira Code',monospace" font-size="26" fill="#06b6d4" font-weight="700" text-anchor="middle">10+</text>
    <text x="204" y="48" font-family="'Inter','Segoe UI',sans-serif" font-size="9" fill="#6b7280" text-anchor="middle" letter-spacing="1.5" font-weight="500">LANGUAGES</text>

    <!-- Card 3: MCP Tools -->
    <rect x="280" y="0" width="128" height="68" rx="8" fill="url(#cardBg)" stroke="#374151" stroke-width="0.8"/>
    <text x="344" y="28" font-family="'SF Mono','Fira Code',monospace" font-size="26" fill="#10b981" font-weight="700" text-anchor="middle">12</text>
    <text x="344" y="48" font-family="'Inter','Segoe UI',sans-serif" font-size="9" fill="#6b7280" text-anchor="middle" letter-spacing="1.5" font-weight="500">MCP TOOLS</text>

    <!-- Card 4: Engines -->
    <rect x="420" y="0" width="128" height="68" rx="8" fill="url(#cardBg)" stroke="#374151" stroke-width="0.8"/>
    <text x="484" y="28" font-family="'SF Mono','Fira Code',monospace" font-size="26" fill="#f59e0b" font-weight="700" text-anchor="middle">6</text>
    <text x="484" y="48" font-family="'Inter','Segoe UI',sans-serif" font-size="9" fill="#6b7280" text-anchor="middle" letter-spacing="1.5" font-weight="500">ENGINES</text>
  </g>

  <!-- Engine pills -->
  <g transform="translate(160, 265)">
    <text x="0" y="0" font-family="'Inter','Segoe UI',sans-serif" font-size="9" fill="#4b5563" letter-spacing="1.5" font-weight="500">ANALYSIS ENGINES</text>

    <rect x="0" y="8" width="56" height="20" rx="4" fill="#8b5cf6" opacity="0.12" stroke="#8b5cf6" stroke-width="0.5" stroke-opacity="0.3"/>
    <text x="28" y="22" font-family="'SF Mono',monospace" font-size="8" fill="#a78bfa" text-anchor="middle" font-weight="600">AST</text>

    <rect x="62" y="8" width="56" height="20" rx="4" fill="#8b5cf6" opacity="0.12" stroke="#8b5cf6" stroke-width="0.5" stroke-opacity="0.3"/>
    <text x="90" y="22" font-family="'SF Mono',monospace" font-size="8" fill="#a78bfa" text-anchor="middle" font-weight="600">TAINT</text>

    <rect x="124" y="8" width="62" height="20" rx="4" fill="#8b5cf6" opacity="0.12" stroke="#8b5cf6" stroke-width="0.5" stroke-opacity="0.3"/>
    <text x="155" y="22" font-family="'SF Mono',monospace" font-size="8" fill="#a78bfa" text-anchor="middle" font-weight="600">REGEX</text>

    <rect x="192" y="8" width="56" height="20" rx="4" fill="#06b6d4" opacity="0.12" stroke="#06b6d4" stroke-width="0.5" stroke-opacity="0.3"/>
    <text x="220" y="22" font-family="'SF Mono',monospace" font-size="8" fill="#22d3ee" text-anchor="middle" font-weight="600">PKGS</text>

    <rect x="254" y="8" width="68" height="20" rx="4" fill="#06b6d4" opacity="0.12" stroke="#06b6d4" stroke-width="0.5" stroke-opacity="0.3"/>
    <text x="288" y="22" font-family="'SF Mono',monospace" font-size="8" fill="#22d3ee" text-anchor="middle" font-weight="600">PROMPT</text>

    <rect x="328" y="8" width="50" height="20" rx="4" fill="#10b981" opacity="0.12" stroke="#10b981" stroke-width="0.5" stroke-opacity="0.3"/>
    <text x="353" y="22" font-family="'SF Mono',monospace" font-size="8" fill="#34d399" text-anchor="middle" font-weight="600">LLM</text>
  </g>

  <!-- Badge row -->
  <g transform="translate(160, 308)">
    <!-- Python badge -->
    <rect x="0" y="0" width="86" height="20" rx="4" fill="#1e293b"/>
    <rect x="0" y="0" width="46" height="20" rx="4" fill="#3572A5"/>
    <text x="23" y="14" font-family="'Inter',sans-serif" font-size="9.5" fill="#fff" text-anchor="middle" font-weight="600">Python</text>
    <text x="66" y="14" font-family="'Inter',sans-serif" font-size="9.5" fill="#94a3b8" text-anchor="middle">3.10+</text>

    <!-- MIT badge -->
    <rect x="94" y="0" width="60" height="20" rx="4" fill="#1e293b"/>
    <rect x="94" y="0" width="32" height="20" rx="4" fill="#8b5cf6"/>
    <text x="110" y="14" font-family="'Inter',sans-serif" font-size="9.5" fill="#fff" text-anchor="middle" font-weight="600">MIT</text>
    <text x="139" y="14" font-family="'Inter',sans-serif" font-size="9.5" fill="#94a3b8" text-anchor="middle">lic</text>

    <!-- MCP badge -->
    <rect x="162" y="0" width="78" height="20" rx="4" fill="#1e293b"/>
    <rect x="162" y="0" width="38" height="20" rx="4" fill="#06b6d4"/>
    <text x="181" y="14" font-family="'Inter',sans-serif" font-size="9.5" fill="#fff" text-anchor="middle" font-weight="600">MCP</text>
    <text x="214" y="14" font-family="'Inter',sans-serif" font-size="9.5" fill="#94a3b8" text-anchor="middle">ready</text>

    <!-- SARIF badge -->
    <rect x="248" y="0" width="84" height="20" rx="4" fill="#1e293b"/>
    <rect x="248" y="0" width="44" height="20" rx="4" fill="#10b981"/>
    <text x="270" y="14" font-family="'Inter',sans-serif" font-size="9.5" fill="#fff" text-anchor="middle" font-weight="600">SARIF</text>
    <text x="304" y="14" font-family="'Inter',sans-serif" font-size="9.5" fill="#94a3b8" text-anchor="middle">2.1.0</text>

    <!-- CI/CD badge -->
    <rect x="340" y="0" width="72" height="20" rx="4" fill="#1e293b"/>
    <rect x="340" y="0" width="40" height="20" rx="4" fill="#f59e0b"/>
    <text x="360" y="14" font-family="'Inter',sans-serif" font-size="9.5" fill="#fff" text-anchor="middle" font-weight="600">CI/CD</text>
    <text x="390" y="14" font-family="'Inter',sans-serif" font-size="9.5" fill="#94a3b8" text-anchor="middle">yes</text>
  </g>

  <!-- Capability icons row -->
  <g transform="translate(160, 345)">
    <text x="0" y="0" font-family="'Inter','Segoe UI',sans-serif" font-size="9" fill="#4b5563" letter-spacing="1.5" font-weight="500">CAPABILITIES</text>

    <rect x="0" y="8" width="100" height="20" rx="4" fill="#ef4444" opacity="0.08" stroke="#ef4444" stroke-width="0.5" stroke-opacity="0.25"/>
    <text x="50" y="22" font-family="'SF Mono',monospace" font-size="8" fill="#f87171" text-anchor="middle" font-weight="600">VULN SCAN</text>

    <rect x="106" y="8" width="100" height="20" rx="4" fill="#f59e0b" opacity="0.08" stroke="#f59e0b" stroke-width="0.5" stroke-opacity="0.25"/>
    <text x="156" y="22" font-family="'SF Mono',monospace" font-size="8" fill="#fbbf24" text-anchor="middle" font-weight="600">PKG VERIFY</text>

    <rect x="212" y="8" width="115" height="20" rx="4" fill="#8b5cf6" opacity="0.08" stroke="#8b5cf6" stroke-width="0.5" stroke-opacity="0.25"/>
    <text x="269" y="22" font-family="'SF Mono',monospace" font-size="8" fill="#a78bfa" text-anchor="middle" font-weight="600">PROMPT GUARD</text>

    <rect x="333" y="8" width="90" height="20" rx="4" fill="#10b981" opacity="0.08" stroke="#10b981" stroke-width="0.5" stroke-opacity="0.25"/>
    <text x="378" y="22" font-family="'SF Mono',monospace" font-size="8" fill="#34d399" text-anchor="middle" font-weight="600">AUTO-FIX</text>

    <rect x="429" y="8" width="90" height="20" rx="4" fill="#06b6d4" opacity="0.08" stroke="#06b6d4" stroke-width="0.5" stroke-opacity="0.25"/>
    <text x="474" y="22" font-family="'SF Mono',monospace" font-size="8" fill="#22d3ee" text-anchor="middle" font-weight="600">AI REVIEW</text>
  </g>

  <!-- Right side: code scan mockup -->
  <g transform="translate(700, 38)">
    <!-- Terminal window -->
    <rect x="0" y="0" width="450" height="324" rx="10" fill="#0f172a" stroke="#1e293b" stroke-width="1.5"/>
    <!-- Title bar -->
    <rect x="0" y="0" width="450" height="30" rx="10" fill="#1e293b"/>
    <rect x="0" y="20" width="450" height="10" fill="#1e293b"/>
    <!-- Traffic lights -->
    <circle cx="16" cy="15" r="5" fill="#ff5f57"/>
    <circle cx="32" cy="15" r="5" fill="#febc2e"/>
    <circle cx="48" cy="15" r="5" fill="#28c840"/>
    <text x="225" y="19" font-family="'Inter',sans-serif" font-size="10.5" fill="#64748b" text-anchor="middle">agentic-scan</text>

    <!-- Terminal content -->
    <g transform="translate(14, 42)">
      <!-- Command -->
      <text font-family="'SF Mono','Fira Code','Cascadia Code',monospace" font-size="11">
        <tspan x="0" y="0" fill="#64748b">$</tspan>
        <tspan fill="#e2e8f0"> agentic-scan scan \</tspan>
        <tspan x="10" y="16" fill="#e2e8f0">--project</tspan>
        <tspan fill="#a78bfa"> ./myapp</tspan>
        <tspan fill="#e2e8f0"> --format</tspan>
        <tspan fill="#a78bfa"> terminal</tspan>
      </text>

      <!-- Grade panel -->
      <rect x="0" y="38" width="418" height="32" rx="4" fill="#1e1b4b" opacity="0.4" stroke="#4c1d95" stroke-width="0.5"/>
      <text font-family="'SF Mono',monospace" font-size="11" y="58">
        <tspan x="8" fill="#e2e8f0" font-weight="600">Security Grade:</tspan>
        <tspan fill="#f87171" font-weight="700" font-size="14"> D </tspan>
        <tspan fill="#64748b">(38/100)</tspan>
        <tspan fill="#64748b" font-size="10"> — Poor: critical issues present</tspan>
      </text>

      <!-- Summary table -->
      <text font-family="'SF Mono','Fira Code',monospace" font-size="10.5" y="86">
        <tspan x="0" fill="#64748b">  Severity</tspan>
        <tspan x="180" fill="#64748b">Count</tspan>
      </text>
      <line x1="0" y1="90" x2="250" y2="90" stroke="#374151" stroke-width="0.5"/>
      <text font-family="'SF Mono',monospace" font-size="10.5" y="103">
        <tspan x="0" fill="#ef4444">  ERROR (critical)</tspan>
        <tspan x="190" fill="#ef4444">5</tspan>
      </text>
      <text font-family="'SF Mono',monospace" font-size="10.5" y="117">
        <tspan x="0" fill="#f59e0b">  WARNING (high)</tspan>
        <tspan x="190" fill="#f59e0b">12</tspan>
      </text>
      <text font-family="'SF Mono',monospace" font-size="10.5" y="131">
        <tspan x="0" fill="#06b6d4">  INFO (medium)</tspan>
        <tspan x="190" fill="#06b6d4">8</tspan>
      </text>
      <text font-family="'SF Mono',monospace" font-size="10.5" y="145">
        <tspan x="0" fill="#e2e8f0" font-weight="600">  Total</tspan>
        <tspan x="190" fill="#e2e8f0" font-weight="600">25</tspan>
      </text>

      <!-- Sample findings -->
      <text font-family="'SF Mono',monospace" font-size="10.5" y="170">
        <tspan x="0" fill="#ef4444" font-weight="600">ERROR</tspan>
        <tspan fill="#94a3b8"> python.injection.sql-format-string</tspan>
      </text>
      <text font-family="'SF Mono',monospace" font-size="10.5" y="184">
        <tspan x="0" fill="#64748b">  SQL query built with f-string</tspan>
      </text>
      <text font-family="'SF Mono',monospace" font-size="10.5" y="198">
        <tspan x="0" fill="#475569">  app.py:42</tspan>
        <tspan fill="#374151"> | </tspan>
        <tspan fill="#4b5563">CWE-89</tspan>
      </text>

      <text font-family="'SF Mono',monospace" font-size="10.5" y="220">
        <tspan x="0" fill="#ef4444" font-weight="600">ERROR</tspan>
        <tspan fill="#94a3b8"> python.secrets.hardcoded-password</tspan>
      </text>
      <text font-family="'SF Mono',monospace" font-size="10.5" y="234">
        <tspan x="0" fill="#64748b">  Hardcoded password detected</tspan>
      </text>
      <text font-family="'SF Mono',monospace" font-size="10.5" y="248">
        <tspan x="0" fill="#475569">  config.py:17</tspan>
        <tspan fill="#374151"> | </tspan>
        <tspan fill="#4b5563">CWE-798</tspan>
      </text>

      <text font-family="'SF Mono',monospace" font-size="10.5" y="270">
        <tspan x="0" fill="#f59e0b" font-weight="600">WARN </tspan>
        <tspan fill="#94a3b8"> javascript.xss.innerhtml</tspan>
      </text>
      <text font-family="'SF Mono',monospace" font-size="10.5" y="284">
        <tspan x="0" fill="#64748b">  innerHTML assignment — XSS risk</tspan>
      </text>
    </g>
  </g>

  <!-- Bottom accent line -->
  <rect x="0" y="397" width="1200" height="3">
    <animate attributeName="fill" values="#8b5cf6;#06b6d4;#10b981;#8b5cf6" dur="6s" repeatCount="indefinite"/>
  </rect>
</svg>
